<svg width="44" height="31" viewBox="0 0 44 31" fill="none" xmlns="http://www.w3.org/2000/svg">
<path d="M18.0809 14.7227C18.1037 14.8114 18.1854 14.8731 18.2781 14.8731H20.0108C20.1231 14.8731 20.2142 14.7836 20.2142 14.6733V9.06744C20.2142 8.9826 20.2692 8.90701 20.3509 8.87847L21.9776 8.31927C22.0208 8.30462 22.0687 8.30462 22.1119 8.31927L23.7385 8.87847C23.8202 8.90624 23.8752 8.98183 23.8752 9.06744V14.6733C23.8752 14.7836 23.9663 14.8731 24.0786 14.8731H25.8113C25.904 14.8731 25.9857 14.8114 26.0085 14.7227L27.7176 8.17118C27.7325 8.11411 27.7208 8.05395 27.6862 8.00612L27.1419 7.25333C27.1175 7.21939 27.083 7.19394 27.0429 7.18006L22.1111 5.48318C22.0679 5.46853 22.02 5.46853 21.9768 5.48318L17.0449 7.18006C17.0049 7.19394 16.9703 7.21939 16.946 7.25333L16.4017 8.00612C16.3671 8.05395 16.3553 8.11488 16.3702 8.17118L18.0794 14.7227H18.0809ZM22.4001 6.60312C22.4001 6.46505 22.5384 6.36864 22.6711 6.41415L26.596 7.76471C26.636 7.77859 26.6698 7.80404 26.6942 7.83721L26.9172 8.14496C26.9518 8.19278 26.9636 8.25371 26.9487 8.31079L25.4579 14.0262C25.4351 14.1149 25.3534 14.1766 25.2607 14.1766H24.7895C24.6771 14.1766 24.586 14.0871 24.586 13.9768V8.5738C24.586 8.48896 24.531 8.41337 24.4501 8.38483L22.5376 7.72691C22.4559 7.69914 22.4017 7.62356 22.4017 7.53794V6.60312H22.4001ZM17.173 8.14496L17.396 7.83721C17.4204 7.80327 17.4549 7.77782 17.4942 7.76471L21.4191 6.41415C21.5518 6.36864 21.6901 6.46505 21.6901 6.60312V7.53794C21.6901 7.62278 21.6351 7.69837 21.5542 7.72691L19.6416 8.38483C19.5599 8.4126 19.5057 8.48819 19.5057 8.5738V13.9768C19.5057 14.0871 19.4146 14.1766 19.3023 14.1766H18.831C18.7384 14.1766 18.6567 14.1149 18.6339 14.0262L17.1431 8.31079C17.1282 8.25371 17.14 8.19355 17.1745 8.14496H17.173Z" fill="white" style="fill:white;fill-opacity:1;"/>
<path d="M43.6371 30.3447L36.3403 19.9776C36.2444 19.841 36.03 19.8727 35.979 20.03L35.1087 22.7049C35.1087 22.7049 35.1087 22.7072 35.1087 22.7088L33.2189 28.4264H26.2182C26.1514 28.4264 26.0886 28.394 26.0509 28.3401L25.483 27.5333C25.4594 27.5001 25.4469 27.46 25.4469 27.4199V27.1808C25.4469 27.0705 25.538 26.981 25.6503 26.981H32.5018C32.5913 26.981 32.6707 26.9232 32.6966 26.8391L35.2304 18.5815C35.2485 18.5221 35.2383 18.4589 35.2014 18.408L28.8094 9.55953C28.7089 9.4207 28.4889 9.4608 28.4465 9.62586L27.1434 14.6232C27.1105 14.7496 27.2079 14.8723 27.3406 14.8723H29.5893C29.6553 14.8723 29.7174 14.9039 29.7551 14.9564L30.4219 15.8788C30.5177 16.0115 30.4219 16.1943 30.2562 16.1943H27.0319C26.9196 16.1943 26.8285 16.2838 26.8285 16.3941V18.5283C26.8285 18.6386 26.9196 18.728 27.0319 18.728H31.4626C31.5993 18.728 31.6967 18.8576 31.6574 18.9857L31.3165 20.0956C31.2906 20.1796 31.2113 20.2375 31.1217 20.2375H26.3109C26.2504 20.2375 26.1931 20.2637 26.1546 20.3092L24.4996 22.256C24.3889 22.3863 24.4831 22.5838 24.6559 22.5838H30.3057C30.4423 22.5838 30.5397 22.7134 30.5005 22.8414L30.1525 23.976C30.1266 24.0601 30.0473 24.1179 29.9577 24.1179H24.9403C24.8279 24.1179 24.7368 24.2074 24.7368 24.3177V27.6359C24.7368 27.6767 24.7494 27.7161 24.773 27.7492L25.6786 29.0358C25.7163 29.0898 25.7791 29.1222 25.8459 29.1222H40.0052C40.1693 29.1222 40.2659 28.9409 40.1725 28.809L35.9523 22.8137C35.9169 22.7635 35.9067 22.7003 35.9248 22.6424L36.2366 21.6258C36.2861 21.4654 36.5021 21.4322 36.5987 21.5695L42.283 29.6451C42.3764 29.7778 42.2798 29.9583 42.1157 29.9583H25.0534C24.9866 29.9583 24.9238 29.9259 24.8861 29.8719L23.6781 28.1557C23.6545 28.1226 23.6419 28.0824 23.6419 28.0423V24.3169C23.6419 24.2066 23.5508 24.1172 23.4385 24.1172H20.6517C20.5394 24.1172 20.4483 24.2066 20.4483 24.3169V28.0423C20.4483 28.0832 20.4357 28.1226 20.4122 28.1557L19.2041 29.8719C19.1664 29.9259 19.1036 29.9583 19.0368 29.9583H1.97375C1.80959 29.9583 1.71298 29.777 1.80645 29.6443L7.49074 21.5688C7.58735 21.4307 7.80414 21.4646 7.85283 21.6251L8.16466 22.6417C8.18272 22.7003 8.17251 22.7627 8.13717 22.8129L3.91774 28.8082C3.82427 28.9409 3.92088 29.1214 4.08504 29.1214H18.2443C18.3111 29.1214 18.3739 29.089 18.4116 29.035L19.3172 27.7485C19.3408 27.7153 19.3534 27.6752 19.3534 27.6351V24.3169C19.3534 24.2066 19.2623 24.1172 19.1499 24.1172H14.1325C14.043 24.1172 13.9636 24.0593 13.9377 23.9752L13.5898 22.8406C13.5505 22.7126 13.6479 22.583 13.7845 22.583H19.4343C19.6071 22.583 19.7013 22.3856 19.5906 22.2552L17.9356 20.3084C17.8972 20.2629 17.8398 20.2367 17.7793 20.2367H12.9685C12.8789 20.2367 12.7996 20.1789 12.7737 20.0948L12.4328 18.9849C12.3935 18.8569 12.4909 18.7273 12.6276 18.7273H17.0583C17.1706 18.7273 17.2617 18.6378 17.2617 18.5275V16.3933C17.2617 16.283 17.1706 16.1935 17.0583 16.1935H13.834C13.6691 16.1935 13.5725 16.0107 13.6683 15.8781L14.3351 14.9556C14.3736 14.9031 14.4349 14.8715 14.5009 14.8715H16.7496C16.8824 14.8715 16.9797 14.7481 16.9468 14.6224L15.6437 9.62509C15.6005 9.46003 15.3806 9.41993 15.2808 9.55876L8.88884 18.4072C8.85271 18.4573 8.84171 18.5213 8.85978 18.5807L11.3936 26.8383C11.4196 26.9224 11.4989 26.9802 11.5884 26.9802H18.4399C18.5522 26.9802 18.6433 27.0697 18.6433 27.18V27.4191C18.6433 27.46 18.6308 27.4993 18.6072 27.5325L18.0393 28.3393C18.0016 28.3933 17.9388 28.4257 17.872 28.4257H10.8713L8.98152 22.708C8.98152 22.708 8.98152 22.7057 8.98152 22.7041L8.11125 20.0292C8.06019 19.8711 7.84576 19.8403 7.74994 19.9768L0.521458 30.2475C0.398928 30.421 0.526171 30.6578 0.740598 30.6578H19.4091C19.4759 30.6578 19.5387 30.6254 19.5764 30.5714L21.1222 28.3755C21.1458 28.3424 21.1583 28.3023 21.1583 28.2622V25.0165C21.1583 24.9062 21.2494 24.8167 21.3618 24.8167H22.7292C22.8415 24.8167 22.9327 24.9062 22.9327 25.0165V28.2622C22.9327 28.303 22.9452 28.3424 22.9688 28.3755L24.5146 30.5714C24.5523 30.6254 24.6151 30.6578 24.6819 30.6578H43.4698C43.6339 30.6578 43.7306 30.4766 43.6371 30.3447ZM25.4461 25.0173C25.4461 24.907 25.5372 24.8175 25.6495 24.8175H30.484C30.5735 24.8175 30.6528 24.7597 30.6788 24.6756L31.4548 22.1472C31.494 22.0192 31.3967 21.8896 31.26 21.8896H26.1719C25.9991 21.8896 25.9048 21.6922 26.0155 21.5618L26.4852 21.0088C26.5237 20.9633 26.5811 20.9371 26.6416 20.9371H31.648C31.7375 20.9371 31.8169 20.8792 31.8428 20.7951L32.611 18.2915C32.6502 18.1635 32.5528 18.0339 32.4162 18.0339H27.7396C27.6273 18.0339 27.5362 17.9444 27.5362 17.8341V17.0944C27.5362 16.9841 27.6273 16.8947 27.7396 16.8947H31.6276C31.7925 16.8947 31.8891 16.7119 31.7933 16.5792L30.1195 14.2622C30.081 14.2097 30.0198 14.1781 29.9538 14.1781H28.2533C28.1205 14.1781 28.0232 14.0547 28.0561 13.929L28.7528 11.2595C28.796 11.0944 29.016 11.0543 29.1157 11.1932L34.4206 18.536C34.4568 18.5861 34.4678 18.6501 34.4497 18.7095L32.168 26.1441C32.142 26.2282 32.0627 26.2861 31.9732 26.2861H25.6487C25.5364 26.2861 25.4453 26.1966 25.4453 26.0863V25.0188L25.4461 25.0173ZM34.8589 25.7199L36.7644 28.428H33.9635L34.8581 25.7199H34.8589ZM38.8191 28.1141C38.9126 28.2467 38.816 28.428 38.6518 28.428H37.626C37.6237 28.4234 37.6213 28.4187 37.6182 28.4141L35.1511 24.9085C35.1464 24.9016 35.1401 24.8954 35.1338 24.8892L35.5854 23.5217L38.8184 28.1148L38.8191 28.1141ZM18.4399 26.2845H12.1155C12.0259 26.2845 11.9466 26.2267 11.9207 26.1426L9.63894 18.708C9.62088 18.6486 9.63109 18.5854 9.66801 18.5344L14.9729 11.1916C15.0735 11.0528 15.2934 11.0929 15.3358 11.2579L16.0317 13.9274C16.0647 14.0539 15.9673 14.1766 15.8346 14.1766H14.1341C14.0681 14.1766 14.006 14.2082 13.9683 14.2606L12.2945 16.5776C12.1987 16.7103 12.2945 16.8931 12.4603 16.8931H16.3482C16.4606 16.8931 16.5517 16.9826 16.5517 17.0929V17.8326C16.5517 17.9429 16.4606 18.0323 16.3482 18.0323H11.6717C11.535 18.0323 11.4376 18.1619 11.4769 18.2899L12.2451 20.7936C12.271 20.8777 12.3503 20.9355 12.4399 20.9355H17.4463C17.5068 20.9355 17.5641 20.9617 17.6026 21.0073L18.0723 21.5603C18.1831 21.6906 18.0888 21.8881 17.916 21.8881H12.8279C12.6912 21.8881 12.5938 22.0177 12.6331 22.1457L13.4091 24.674C13.435 24.7581 13.5143 24.816 13.6039 24.816H18.4391C18.5514 24.816 18.6425 24.9054 18.6425 25.0157V26.0832C18.6425 26.1935 18.5514 26.283 18.4391 26.283L18.4399 26.2845ZM5.27107 28.1141L8.50397 23.5209L8.9556 24.8885C8.95011 24.8946 8.94382 24.9008 8.93832 24.9077L6.47123 28.4133C6.46809 28.418 6.46573 28.4226 6.46338 28.4272H5.43837C5.27421 28.4272 5.1776 28.246 5.27107 28.1133V28.1141ZM7.32501 28.4272L9.23051 25.7199L10.1251 28.4272H7.32423H7.32501Z" fill="white" style="fill:white;fill-opacity:1;"/>
<path d="M18.4038 5.8642L21.9783 4.63551C22.0215 4.62086 22.0695 4.62086 22.1127 4.63551L25.6864 5.8642C25.8734 5.92822 26.0344 5.71843 25.9197 5.55954L22.2108 0.426499C22.1299 0.313888 21.9603 0.313888 21.8786 0.426499L18.1697 5.55954C18.055 5.71843 18.216 5.92822 18.403 5.8642H18.4038ZM20.0383 4.17967L21.8794 1.63128C21.9603 1.51867 22.1299 1.51867 22.2116 1.63128L24.0527 4.17967C24.1674 4.33856 24.0064 4.54836 23.8194 4.48434L22.1127 3.89738C22.0695 3.88272 22.0215 3.88272 21.9783 3.89738L20.2716 4.48434C20.0846 4.54836 19.9236 4.33856 20.0383 4.17967Z" fill="white" style="fill:white;fill-opacity:1;"/>
<path d="M25.3895 16.0971H18.6889V17.1392H21.4859V22.6201H22.5918V18.1534L21.6155 17.1392H25.3895V16.0971Z" fill="white" style="fill:white;fill-opacity:1;"/>
</svg>
